<svg width="48" height="48" viewBox="0 0 48 48" fill="none" xmlns="http://www.w3.org/2000/svg">
<path fill-rule="evenodd" clip-rule="evenodd" d="M24 48C37.2548 48 48 37.2548 48 24C48 10.7452 37.2548 0 24 0C10.7452 0 0 10.7452 0 24C0 37.2548 10.7452 48 24 48ZM29.7022 10C29.7018 11.6138 30.2878 13.1727 31.3511 14.3867C33.4667 16.8289 36.3911 16.6889 36.3911 16.6889V21.4956C33.9915 21.4997 31.6513 20.7487 29.7022 19.3489V29.1333C29.7022 34.0333 25.7356 38 20.8511 38C16.2933 38 12 34.3133 12 29.1333C12 23.8133 16.6978 19.6444 22.0644 20.36V25.2756C19.4044 24.4511 16.8222 26.4578 16.8222 29.1333C16.8222 31.3733 18.6578 33.1778 20.8667 33.1778C21.9111 33.1776 22.9148 32.7722 23.6663 32.0468C24.4178 31.3214 24.8585 30.3327 24.8956 29.2889V10H29.7022Z" fill="white"/>
</svg>
