<svg width="48" height="48" viewBox="0 0 48 48" fill="none" xmlns="http://www.w3.org/2000/svg">
<path d="M24 0C37.2686 0 48 10.7314 48 24C48 37.2686 37.2686 48 24 48C10.7314 48 0 37.2686 0 24C0 10.7314 10.7314 0 24 0ZM19.6114 36.6514C30.24 36.6514 36.0686 27.84 36.0686 20.1943V19.44C37.2 18.6171 38.1943 17.5886 38.9486 16.4229C37.92 16.8686 36.7886 17.1771 35.6229 17.3486C36.8229 16.6286 37.7486 15.4971 38.16 14.16C37.0286 14.8114 35.7943 15.2914 34.4914 15.5657C33.4286 14.4343 31.92 13.7486 30.2743 13.7486C27.0857 13.7486 24.48 16.3543 24.48 19.5429C24.48 19.9886 24.5143 20.4343 24.6514 20.8457C19.8514 20.6057 15.5657 18.3086 12.72 14.8114C12.24 15.6686 11.9314 16.6629 11.9314 17.7257C11.9314 19.7143 12.96 21.4971 14.5029 22.5257C13.5429 22.5257 12.6514 22.2514 11.8971 21.8057V21.8743C11.8971 24.6857 13.8857 27.0171 16.5257 27.5657C16.0457 27.7029 15.5314 27.7714 15.0171 27.7714C14.64 27.7714 14.2971 27.7371 13.92 27.6686C14.64 29.9657 16.8 31.6457 19.3029 31.68C17.3143 33.2229 14.8114 34.1486 12.1029 34.1486C11.6229 34.1486 11.1771 34.1486 10.7314 34.08C13.2686 35.7257 16.32 36.6857 19.5771 36.6857" fill="white"/>
</svg>
