<svg width="74" height="12" viewBox="0 0 74 12" fill="none" xmlns="http://www.w3.org/2000/svg">
<path d="M4.82317 7.404C4.03117 7.404 3.43917 7.16 3.04717 6.672C2.65517 6.176 2.45917 5.524 2.45917 4.716C2.45917 4.196 2.55117 3.736 2.73517 3.336C2.91917 2.928 3.19117 2.612 3.55117 2.388C3.91117 2.156 4.35117 2.04 4.87117 2.04C5.11917 2.04 5.37117 2.072 5.62717 2.136C5.88317 2.2 6.12317 2.288 6.34717 2.4L5.99917 3.132C5.79917 3.028 5.60317 2.952 5.41117 2.904C5.22717 2.848 5.05117 2.82 4.88317 2.82C4.41117 2.82 4.04317 2.988 3.77917 3.324C3.52317 3.66 3.39517 4.124 3.39517 4.716C3.39517 5.124 3.44317 5.472 3.53917 5.76C3.64317 6.04 3.80317 6.256 4.01917 6.408C4.23517 6.552 4.51917 6.624 4.87117 6.624C5.05517 6.624 5.25917 6.6 5.48317 6.552C5.71517 6.496 5.93117 6.428 6.13117 6.348V7.116C5.93917 7.196 5.74317 7.264 5.54317 7.32C5.34317 7.376 5.10317 7.404 4.82317 7.404ZM4.64317 9.12C4.00317 9.12 3.41517 9.012 2.87917 8.796C2.34317 8.58 1.87517 8.276 1.47517 7.884C1.08317 7.484 0.779173 7.016 0.563173 6.48C0.347173 5.944 0.239173 5.356 0.239173 4.716C0.239173 4.076 0.347173 3.488 0.563173 2.952C0.779173 2.416 1.08317 1.952 1.47517 1.56C1.87517 1.16 2.34317 0.852 2.87917 0.636C3.41517 0.42 4.00317 0.312 4.64317 0.312C5.25117 0.312 5.81917 0.42 6.34717 0.636C6.88317 0.852 7.35117 1.16 7.75117 1.56C8.15917 1.952 8.47517 2.416 8.69917 2.952C8.93117 3.488 9.04717 4.076 9.04717 4.716C9.04717 5.356 8.93917 5.944 8.72317 6.48C8.50717 7.016 8.19917 7.484 7.79917 7.884C7.40717 8.276 6.94317 8.58 6.40717 8.796C5.87117 9.012 5.28317 9.12 4.64317 9.12ZM4.64317 8.484C5.15517 8.484 5.63517 8.392 6.08317 8.208C6.53117 8.024 6.92717 7.764 7.27117 7.428C7.61517 7.084 7.88317 6.684 8.07517 6.228C8.26717 5.772 8.36317 5.268 8.36317 4.716C8.36317 4.196 8.27117 3.708 8.08717 3.252C7.90317 2.796 7.64317 2.396 7.30717 2.052C6.97917 1.708 6.58717 1.44 6.13117 1.248C5.68317 1.048 5.18717 0.948 4.64317 0.948C4.09917 0.948 3.59917 1.04 3.14317 1.224C2.68717 1.408 2.29117 1.672 1.95517 2.016C1.62717 2.352 1.37117 2.748 1.18717 3.204C1.00317 3.66 0.911173 4.164 0.911173 4.716C0.911173 5.236 1.00317 5.724 1.18717 6.18C1.37117 6.636 1.62717 7.036 1.95517 7.38C2.29117 7.724 2.68717 7.996 3.14317 8.196C3.59917 8.388 4.09917 8.484 4.64317 8.484ZM15.1167 9V0.431999H16.1967V8.04H19.9407V9H15.1167ZM27.4577 5.772C27.4577 6.308 27.3857 6.784 27.2417 7.2C27.1057 7.608 26.9057 7.956 26.6417 8.244C26.3857 8.532 26.0697 8.752 25.6937 8.904C25.3257 9.048 24.9137 9.12 24.4577 9.12C24.0337 9.12 23.6417 9.048 23.2817 8.904C22.9217 8.752 22.6097 8.532 22.3457 8.244C22.0817 7.956 21.8737 7.608 21.7217 7.2C21.5777 6.784 21.5057 6.308 21.5057 5.772C21.5057 5.06 21.6257 4.46 21.8657 3.972C22.1057 3.476 22.4497 3.1 22.8977 2.844C23.3457 2.58 23.8777 2.448 24.4937 2.448C25.0777 2.448 25.5897 2.58 26.0297 2.844C26.4777 3.1 26.8257 3.476 27.0737 3.972C27.3297 4.46 27.4577 5.06 27.4577 5.772ZM22.5977 5.772C22.5977 6.276 22.6617 6.716 22.7897 7.092C22.9257 7.46 23.1337 7.744 23.4137 7.944C23.6937 8.144 24.0497 8.244 24.4817 8.244C24.9137 8.244 25.2697 8.144 25.5497 7.944C25.8297 7.744 26.0337 7.46 26.1617 7.092C26.2977 6.716 26.3657 6.276 26.3657 5.772C26.3657 5.26 26.2977 4.824 26.1617 4.464C26.0257 4.104 25.8177 3.828 25.5377 3.636C25.2657 3.436 24.9097 3.336 24.4697 3.336C23.8137 3.336 23.3377 3.552 23.0417 3.984C22.7457 4.416 22.5977 5.012 22.5977 5.772ZM32.0113 2.448C32.4353 2.448 32.8153 2.528 33.1513 2.688C33.4953 2.848 33.7873 3.092 34.0273 3.42H34.0873L34.2313 2.568H35.0713V9.108C35.0713 9.716 34.9673 10.224 34.7593 10.632C34.5513 11.048 34.2353 11.36 33.8113 11.568C33.3873 11.776 32.8473 11.88 32.1913 11.88C31.7273 11.88 31.2993 11.844 30.9073 11.772C30.5233 11.708 30.1793 11.608 29.8753 11.472V10.5C30.0833 10.604 30.3113 10.692 30.5593 10.764C30.8073 10.844 31.0753 10.904 31.3633 10.944C31.6513 10.984 31.9473 11.004 32.2513 11.004C32.8033 11.004 33.2353 10.84 33.5473 10.512C33.8673 10.192 34.0273 9.752 34.0273 9.192V8.94C34.0273 8.844 34.0313 8.708 34.0393 8.532C34.0473 8.348 34.0553 8.22 34.0633 8.148H34.0153C33.7913 8.476 33.5113 8.72 33.1753 8.88C32.8473 9.04 32.4633 9.12 32.0233 9.12C31.1913 9.12 30.5393 8.828 30.0673 8.244C29.6033 7.66 29.3713 6.844 29.3713 5.796C29.3713 5.108 29.4753 4.516 29.6833 4.02C29.8993 3.516 30.2033 3.128 30.5953 2.856C30.9873 2.584 31.4593 2.448 32.0113 2.448ZM32.1553 3.336C31.7953 3.336 31.4873 3.432 31.2313 3.624C30.9833 3.816 30.7913 4.096 30.6553 4.464C30.5273 4.832 30.4633 5.28 30.4633 5.808C30.4633 6.6 30.6073 7.208 30.8953 7.632C31.1913 8.048 31.6193 8.256 32.1793 8.256C32.5073 8.256 32.7873 8.216 33.0193 8.136C33.2513 8.048 33.4433 7.916 33.5953 7.74C33.7473 7.556 33.8593 7.324 33.9313 7.044C34.0033 6.764 34.0393 6.432 34.0393 6.048V5.796C34.0393 5.212 33.9713 4.74 33.8353 4.38C33.7073 4.02 33.5033 3.756 33.2233 3.588C32.9433 3.42 32.5873 3.336 32.1553 3.336ZM43.3061 5.772C43.3061 6.308 43.2341 6.784 43.0901 7.2C42.9541 7.608 42.7541 7.956 42.4901 8.244C42.2341 8.532 41.9181 8.752 41.5421 8.904C41.1741 9.048 40.7621 9.12 40.3061 9.12C39.8821 9.12 39.4901 9.048 39.1301 8.904C38.7701 8.752 38.4581 8.532 38.1941 8.244C37.9301 7.956 37.7221 7.608 37.5701 7.2C37.4261 6.784 37.3541 6.308 37.3541 5.772C37.3541 5.06 37.4741 4.46 37.7141 3.972C37.9541 3.476 38.2981 3.1 38.7461 2.844C39.1941 2.58 39.7261 2.448 40.3421 2.448C40.9261 2.448 41.4381 2.58 41.8781 2.844C42.3261 3.1 42.6741 3.476 42.9221 3.972C43.1781 4.46 43.3061 5.06 43.3061 5.772ZM38.4461 5.772C38.4461 6.276 38.5101 6.716 38.6381 7.092C38.7741 7.46 38.9821 7.744 39.2621 7.944C39.5421 8.144 39.8981 8.244 40.3301 8.244C40.7621 8.244 41.1181 8.144 41.3981 7.944C41.6781 7.744 41.8821 7.46 42.0101 7.092C42.1461 6.716 42.2141 6.276 42.2141 5.772C42.2141 5.26 42.1461 4.824 42.0101 4.464C41.8741 4.104 41.6661 3.828 41.3861 3.636C41.1141 3.436 40.7581 3.336 40.3181 3.336C39.6621 3.336 39.1861 3.552 38.8901 3.984C38.5941 4.416 38.4461 5.012 38.4461 5.772ZM46.8638 7.74C46.7918 8.02 46.6998 8.324 46.5878 8.652C46.4758 8.98 46.3518 9.304 46.2158 9.624C46.0878 9.952 45.9598 10.26 45.8318 10.548H45.0518C45.1318 10.244 45.2078 9.916 45.2798 9.564C45.3598 9.22 45.4318 8.88 45.4958 8.544C45.5598 8.2 45.6118 7.888 45.6518 7.608H46.7798L46.8638 7.74ZM55.6639 9H52.5679V8.376L53.5759 8.148V1.296L52.5679 1.056V0.431999H55.6639V1.056L54.6559 1.296V8.148L55.6639 8.376V9ZM60.8703 2.448C61.6383 2.448 62.2183 2.636 62.6103 3.012C63.0023 3.38 63.1983 3.98 63.1983 4.812V9H62.1543V4.884C62.1543 4.364 62.0383 3.976 61.8063 3.72C61.5743 3.464 61.2103 3.336 60.7143 3.336C60.0023 3.336 59.5103 3.536 59.2383 3.936C58.9663 4.336 58.8303 4.912 58.8303 5.664V9H57.7743V2.568H58.6263L58.7823 3.444H58.8423C58.9863 3.22 59.1623 3.036 59.3703 2.892C59.5863 2.74 59.8223 2.628 60.0783 2.556C60.3343 2.484 60.5983 2.448 60.8703 2.448ZM68.3723 9.12C67.8043 9.12 67.2963 9.004 66.8483 8.772C66.4083 8.54 66.0603 8.18 65.8043 7.692C65.5563 7.204 65.4323 6.58 65.4323 5.82C65.4323 5.028 65.5643 4.384 65.8283 3.888C66.0923 3.392 66.4483 3.028 66.8963 2.796C67.3523 2.564 67.8683 2.448 68.4443 2.448C68.7723 2.448 69.0883 2.484 69.3923 2.556C69.6963 2.62 69.9443 2.7 70.1363 2.796L69.8123 3.672C69.6203 3.6 69.3963 3.532 69.1403 3.468C68.8843 3.404 68.6443 3.372 68.4203 3.372C67.9883 3.372 67.6323 3.464 67.3523 3.648C67.0723 3.832 66.8643 4.104 66.7283 4.464C66.5923 4.824 66.5243 5.272 66.5243 5.808C66.5243 6.32 66.5923 6.756 66.7283 7.116C66.8643 7.476 67.0683 7.748 67.3403 7.932C67.6123 8.116 67.9523 8.208 68.3603 8.208C68.7123 8.208 69.0203 8.172 69.2843 8.1C69.5563 8.028 69.8043 7.94 70.0283 7.836V8.772C69.8123 8.884 69.5723 8.968 69.3083 9.024C69.0523 9.088 68.7403 9.12 68.3723 9.12ZM72.0019 8.352C72.0019 8.056 72.0739 7.848 72.2179 7.728C72.3619 7.608 72.5339 7.548 72.7339 7.548C72.9419 7.548 73.1179 7.608 73.2619 7.728C73.4139 7.848 73.4899 8.056 73.4899 8.352C73.4899 8.64 73.4139 8.848 73.2619 8.976C73.1179 9.104 72.9419 9.168 72.7339 9.168C72.5339 9.168 72.3619 9.104 72.2179 8.976C72.0739 8.848 72.0019 8.64 72.0019 8.352Z" fill="white" fill-opacity="0.8"/>
</svg>
