<svg width="550" height="146" viewBox="0 0 550 146" fill="none" xmlns="http://www.w3.org/2000/svg">
<path fill-rule="evenodd" clip-rule="evenodd" d="M78.7036 0.604492H67.2797V39.5129C66.9566 39.568 66.635 39.6276 66.3151 39.6918L52.4805 3.32613L41.8032 7.38812L55.6609 43.8147C55.4098 43.9653 55.1608 44.119 54.9139 44.2759L29.0694 15.0929L20.5171 22.6668L46.4421 51.9407C46.4039 51.9893 46.3658 52.0379 46.3279 52.0867L12.0782 33.212L6.56439 43.2173L40.9439 62.1635C40.8627 62.409 40.7841 62.6556 40.7083 62.9035L1.84002 57.331L0.21875 68.6393L35.3441 73.6752L0.325241 79.4048L2.16984 90.6789L41.2491 84.2849L41.2719 84.3476L6.63245 103.538L12.1686 113.531L46.9521 94.2607C47.0781 94.4132 47.2054 94.5647 47.3339 94.7149L21.6034 125.041L30.3144 132.432L55.9676 102.197L41.9517 139.289L52.6381 143.327L66.7572 105.962C66.9309 105.995 67.1051 106.026 67.2797 106.055V146H78.7036V106.055C78.9025 106.022 79.1008 105.986 79.2984 105.949L93.5012 143.282L104.179 139.22L89.9982 101.945C90.158 101.852 90.3169 101.757 90.475 101.662L116.913 131.514L125.465 123.94L99.1747 94.254L133.904 113.393L139.417 103.388L104.737 84.2758C104.812 84.0699 104.885 83.8631 104.955 83.6553L144.143 89.2737L145.764 77.9653L110.646 72.9305L145.658 67.2022L143.813 55.9282L105.073 62.2665C105.054 62.2085 105.035 62.1505 105.016 62.0925L139.35 43.0706L133.814 33.0778L99.6095 52.0277C99.438 51.8081 99.2638 51.5907 99.0871 51.3755L124.38 21.5649L115.669 14.174L90.4533 43.8936L90.3812 43.8501C90.3394 43.8249 90.2976 43.7998 90.2557 43.7749L104.032 7.31773L93.3452 3.27967L79.592 39.6766C79.2972 39.6182 79.0011 39.5636 78.7036 39.5129V0.604492Z" fill="#6A45FF"/>
<path d="M203.047 58.8691C201.549 58.9961 200.178 59.1357 198.934 59.2881C197.69 59.415 196.496 59.5547 195.354 59.707V98.25C197.029 98.4785 198.883 98.6816 200.914 98.8594C202.945 99.0371 205.154 99.1641 207.541 99.2402C208.303 99.291 209.052 99.3164 209.788 99.3164C210.525 99.3164 211.274 99.3164 212.035 99.3164C212.797 99.3164 213.559 99.3164 214.32 99.3164C215.082 99.3164 215.844 99.291 216.606 99.2402C219.449 99.1641 221.976 99.0244 224.185 98.8213C226.419 98.5928 228.438 98.3008 230.24 97.9453C230.697 95.4316 231.078 92.3848 231.383 88.8047H240.067C239.914 91.5215 239.698 94.3018 239.419 97.1455C239.14 99.9639 238.746 102.871 238.238 105.867C233.414 106.68 228.819 107.226 224.451 107.505C220.11 107.784 216.022 107.924 212.188 107.924C208.252 107.924 204.088 107.784 199.695 107.505C195.303 107.226 190.733 106.68 185.985 105.867V52.0137C189.006 51.4805 191.926 51.0869 194.744 50.833C197.588 50.5537 200.356 50.3379 203.047 50.1855V58.8691ZM310.946 49.043C313.485 49.043 315.948 49.1953 318.335 49.5C320.721 49.8047 322.956 50.249 325.038 50.833C327.12 51.3916 329.024 52.0771 330.751 52.8896C332.477 53.6768 333.95 54.5781 335.169 55.5938C336.387 56.6094 337.34 57.7266 338.025 58.9453C338.711 60.1387 339.053 61.4082 339.053 62.7539V95.4316C339.053 96.7773 338.711 98.0596 338.025 99.2783C337.34 100.472 336.387 101.576 335.169 102.592C333.95 103.607 332.477 104.521 330.751 105.334C329.024 106.121 327.12 106.807 325.038 107.391C322.956 107.949 320.721 108.381 318.335 108.686C315.948 108.99 313.485 109.143 310.946 109.143C308.407 109.143 305.944 108.99 303.557 108.686C301.196 108.381 298.974 107.949 296.892 107.391C294.836 106.807 292.944 106.121 291.217 105.334C289.491 104.521 288.006 103.607 286.761 102.592C285.543 101.576 284.591 100.472 283.905 99.2783C283.245 98.0596 282.915 96.7773 282.915 95.4316V62.7539C282.915 61.4082 283.245 60.1387 283.905 58.9453C284.591 57.7266 285.543 56.6094 286.761 55.5938C288.006 54.5781 289.491 53.6768 291.217 52.8896C292.944 52.0771 294.836 51.3916 296.892 50.833C298.974 50.249 301.196 49.8047 303.557 49.5C305.944 49.1953 308.407 49.043 310.946 49.043ZM329.075 65.6484C329.075 64.5566 328.656 63.5283 327.818 62.5635C326.98 61.5732 325.774 60.71 324.2 59.9736C322.651 59.2119 320.759 58.6152 318.525 58.1836C316.291 57.7266 313.764 57.498 310.946 57.498C308.229 57.498 305.766 57.7139 303.557 58.1455C301.348 58.5518 299.444 59.123 297.844 59.8594C296.27 60.5957 295.051 61.459 294.188 62.4492C293.325 63.4395 292.893 64.5059 292.893 65.6484V92.5371C292.893 93.6543 293.325 94.708 294.188 95.6982C295.051 96.6885 296.27 97.5518 297.844 98.2881C299.444 99.0244 301.348 99.6084 303.557 100.04C305.766 100.472 308.229 100.688 310.946 100.688C313.764 100.688 316.291 100.472 318.525 100.04C320.759 99.583 322.651 98.9736 324.2 98.2119C325.774 97.4502 326.98 96.5869 327.818 95.6221C328.656 94.6318 329.075 93.6035 329.075 92.5371V65.6484ZM413.513 49.957C417.347 49.957 420.965 50.2998 424.367 50.9854C427.77 51.6709 430.741 52.623 433.28 53.8418C435.844 55.0605 437.875 56.5205 439.373 58.2217C440.871 59.9229 441.62 61.7891 441.62 63.8203V69.9902H431.718V66.7148C431.718 65.623 431.299 64.582 430.461 63.5918C429.623 62.6016 428.417 61.7256 426.843 60.9639C425.294 60.2021 423.39 59.6055 421.13 59.1738C418.896 58.7168 416.357 58.4883 413.513 58.4883C410.771 58.4883 408.283 58.7041 406.048 59.1357C403.814 59.5674 401.897 60.1514 400.297 60.8877C398.698 61.624 397.466 62.5 396.603 63.5156C395.74 64.5059 395.308 65.5723 395.308 66.7148V91.3945C395.308 92.5117 395.74 93.5781 396.603 94.5938C397.466 95.584 398.698 96.46 400.297 97.2217C401.897 97.958 403.814 98.542 406.048 98.9736C408.283 99.4053 410.771 99.6211 413.513 99.6211C416.357 99.6211 418.896 99.4053 421.13 98.9736C423.39 98.5166 425.294 97.9072 426.843 97.1455C428.417 96.3838 429.623 95.5078 430.461 94.5176C431.299 93.5273 431.718 92.4863 431.718 91.3945V85.9102C429.357 85.9102 427.237 85.9736 425.358 86.1006C423.504 86.2275 421.917 86.3545 420.597 86.4814C419.048 86.6592 417.677 86.8496 416.484 87.0527L417.474 77.8359C421.359 77.5312 425.015 77.3789 428.443 77.3789C433.038 77.3789 437.431 77.6074 441.62 78.0645V94.2891C441.62 96.3203 440.871 98.1865 439.373 99.8877C437.875 101.563 435.844 103.011 433.28 104.229C430.741 105.448 427.77 106.4 424.367 107.086C420.965 107.746 417.347 108.076 413.513 108.076C409.679 108.076 406.061 107.746 402.658 107.086C399.256 106.4 396.273 105.448 393.708 104.229C391.169 103.011 389.151 101.563 387.653 99.8877C386.155 98.1865 385.406 96.3203 385.406 94.2891V63.8203C385.406 61.7891 386.155 59.9229 387.653 58.2217C389.151 56.5205 391.169 55.0605 393.708 53.8418C396.273 52.623 399.256 51.6709 402.658 50.9854C406.061 50.2998 409.679 49.957 413.513 49.957ZM516.689 49.043C519.228 49.043 521.691 49.1953 524.078 49.5C526.465 49.8047 528.699 50.249 530.781 50.833C532.863 51.3916 534.767 52.0771 536.494 52.8896C538.221 53.6768 539.693 54.5781 540.912 55.5938C542.131 56.6094 543.083 57.7266 543.768 58.9453C544.454 60.1387 544.797 61.4082 544.797 62.7539V95.4316C544.797 96.7773 544.454 98.0596 543.768 99.2783C543.083 100.472 542.131 101.576 540.912 102.592C539.693 103.607 538.221 104.521 536.494 105.334C534.767 106.121 532.863 106.807 530.781 107.391C528.699 107.949 526.465 108.381 524.078 108.686C521.691 108.99 519.228 109.143 516.689 109.143C514.15 109.143 511.687 108.99 509.301 108.686C506.939 108.381 504.718 107.949 502.636 107.391C500.579 106.807 498.687 106.121 496.961 105.334C495.234 104.521 493.749 103.607 492.505 102.592C491.286 101.576 490.334 100.472 489.648 99.2783C488.988 98.0596 488.658 96.7773 488.658 95.4316V62.7539C488.658 61.4082 488.988 60.1387 489.648 58.9453C490.334 57.7266 491.286 56.6094 492.505 55.5938C493.749 54.5781 495.234 53.6768 496.961 52.8896C498.687 52.0771 500.579 51.3916 502.636 50.833C504.718 50.249 506.939 49.8047 509.301 49.5C511.687 49.1953 514.15 49.043 516.689 49.043ZM534.818 65.6484C534.818 64.5566 534.399 63.5283 533.561 62.5635C532.723 61.5732 531.517 60.71 529.943 59.9736C528.394 59.2119 526.503 58.6152 524.268 58.1836C522.034 57.7266 519.508 57.498 516.689 57.498C513.973 57.498 511.51 57.7139 509.301 58.1455C507.092 58.5518 505.187 59.123 503.588 59.8594C502.014 60.5957 500.795 61.459 499.931 62.4492C499.068 63.4395 498.637 64.5059 498.637 65.6484V92.5371C498.637 93.6543 499.068 94.708 499.931 95.6982C500.795 96.6885 502.014 97.5518 503.588 98.2881C505.187 99.0244 507.092 99.6084 509.301 100.04C511.51 100.472 513.973 100.688 516.689 100.688C519.508 100.688 522.034 100.472 524.268 100.04C526.503 99.583 528.394 98.9736 529.943 98.2119C531.517 97.4502 532.723 96.5869 533.561 95.6221C534.399 94.6318 534.818 93.6035 534.818 92.5371V65.6484Z" fill="white"/>
</svg>
