<svg width="48" height="48" viewBox="0 0 48 48" fill="none" xmlns="http://www.w3.org/2000/svg">
<path fill-rule="evenodd" clip-rule="evenodd" d="M24 48C37.2548 48 48 37.2548 48 24C48 10.7452 37.2548 0 24 0C10.7452 0 0 10.7452 0 24C0 37.2548 10.7452 48 24 48ZM21.0302 21.0302C21.8178 20.2425 22.8861 19.8 24 19.8C25.1139 19.8 26.1822 20.2425 26.9698 21.0302C27.7575 21.8178 28.2 22.8861 28.2 24C28.2 25.1139 27.7575 26.1822 26.9698 26.9698C26.1822 27.7575 25.1139 28.2 24 28.2C22.8861 28.2 21.8178 27.7575 21.0302 26.9698C20.2425 26.1822 19.8 25.1139 19.8 24C19.8 22.8861 20.2425 21.8178 21.0302 21.0302ZM28.9497 19.0503C27.637 17.7375 25.8565 17 24 17C22.1435 17 20.363 17.7375 19.0503 19.0503C17.7375 20.363 17 22.1435 17 24C17 25.8565 17.7375 27.637 19.0503 28.9497C20.363 30.2625 22.1435 31 24 31C25.8565 31 27.637 30.2625 28.9497 28.9497C30.2625 27.637 31 25.8565 31 24C31 22.1435 30.2625 20.363 28.9497 19.0503ZM32.5874 17.8874C32.9156 17.5592 33.1 17.1141 33.1 16.65C33.1 16.1859 32.9156 15.7408 32.5874 15.4126C32.2593 15.0844 31.8141 14.9 31.35 14.9C30.8859 14.9 30.4408 15.0844 30.1126 15.4126C29.7844 15.7408 29.6 16.1859 29.6 16.65C29.6 17.1141 29.7844 17.5592 30.1126 17.8874C30.4408 18.2156 30.8859 18.4 31.35 18.4C31.8141 18.4 32.2593 18.2156 32.5874 17.8874ZM18.3594 12.8812C19.9708 12.8098 20.5364 12.8 24 12.8C27.556 12.8 28.095 12.8084 29.6392 12.8812C30.734 12.9316 31.4704 13.0786 32.1564 13.3446C32.7283 13.5548 33.2452 13.8918 33.6684 14.3302C34.1053 14.7544 34.4416 15.271 34.6526 15.8422C34.9172 16.5254 35.0656 17.2646 35.1174 18.3594C35.1888 19.9708 35.1986 20.5364 35.1986 24C35.1986 27.5532 35.1902 28.095 35.1174 29.6392C35.067 30.734 34.9186 31.4704 34.6526 32.1592C34.4202 32.7626 34.1388 33.2008 33.667 33.6712C33.2429 34.1081 32.7262 34.4445 32.155 34.6554C31.4704 34.92 30.734 35.067 29.6392 35.1188C28.0278 35.1902 27.4636 35.2 23.9986 35.2C20.444 35.2 19.9036 35.1916 18.358 35.1188C17.266 35.0684 16.5296 34.92 15.838 34.6526C15.236 34.4202 14.7978 34.1388 14.326 33.6684C13.8612 33.2036 13.5812 32.7654 13.3432 32.1564C13.0786 31.4746 12.9316 30.7368 12.8798 29.6406C12.8084 28.0292 12.7986 27.465 12.7986 24C12.7986 20.4454 12.8084 19.905 12.8812 18.3594C12.9316 17.2632 13.0786 16.5282 13.3446 15.8422C13.5551 15.2704 13.892 14.7536 14.3302 14.3302C14.7536 13.8924 15.2705 13.5559 15.8422 13.346C16.5254 13.08 17.2618 12.933 18.3594 12.8812ZM29.7722 10.084C28.2784 10.014 27.8038 10 24 10C20.1962 10 19.7216 10.0182 18.2278 10.084C16.7368 10.154 15.7218 10.3878 14.83 10.735C13.8954 11.086 13.0487 11.6369 12.3492 12.3492C11.6363 13.0482 11.0853 13.8951 10.735 14.83C10.3878 15.7232 10.154 16.7368 10.084 18.2292C10.014 19.7216 10 20.1962 10 24C10 27.8038 10.0168 28.2784 10.084 29.7708C10.154 31.2618 10.3878 32.2782 10.735 33.17C11.0863 34.1044 11.6372 34.951 12.3492 35.6508C13.0485 36.3633 13.8953 36.9143 14.83 37.265C15.7232 37.6108 16.7382 37.846 18.2278 37.916C19.7216 37.986 20.1962 38 24 38C27.8038 38 28.2784 37.9818 29.7722 37.916C31.2618 37.846 32.2782 37.6108 33.17 37.265C34.1042 36.9133 34.9507 36.3624 35.6508 35.6508C36.3635 34.9516 36.9145 34.1049 37.265 33.17C37.6108 32.2768 37.846 31.2618 37.916 29.7708C37.986 28.2784 38 27.8038 38 24C38 20.1962 37.9818 19.7216 37.916 18.2292C37.846 16.7382 37.6108 15.7218 37.265 14.83C36.9135 13.8956 36.3627 13.0491 35.6508 12.3492C34.8724 11.5722 34.094 11.0906 33.17 10.735C32.2782 10.3878 31.2618 10.154 29.7722 10.084Z" fill="white"/>
</svg>
